<?xml version="1.0" encoding="UTF-8" standalone="no"?><!DOCTYPE svg PUBLIC "-//W3C//DTD SVG 1.1//EN" "http://www.w3.org/Graphics/SVG/1.1/DTD/svg11.dtd"><svg width="100%" height="100%" viewBox="0 0 561 431" version="1.1" xmlns="http://www.w3.org/2000/svg" xmlns:xlink="http://www.w3.org/1999/xlink" xml:space="preserve" xmlns:serif="http://www.serif.com/" style="fill-rule:evenodd;clip-rule:evenodd;stroke-linejoin:round;stroke-miterlimit:2;"><g><path id="Docker" d="M324.721,82.101c-6.206,-4.177 -22.516,-5.962 -34.374,-2.768c-0.639,-11.811 -6.728,-21.763 -17.869,-30.447l-4.125,-2.769l-2.748,4.151c-5.403,8.202 -7.68,19.129 -6.873,29.062c0.636,6.119 2.765,12.998 6.873,17.99c-15.433,8.952 -29.657,6.919 -92.653,6.919l-97.263,0c-0.285,14.225 2.002,41.588 19.403,63.864c1.921,2.46 4.03,4.841 6.317,7.134c14.147,14.167 35.522,24.555 67.485,24.585c48.762,0.043 90.541,-26.313 115.953,-90.042c8.363,0.137 30.437,1.5 41.24,-19.376c0.264,-0.352 2.748,-5.537 2.748,-5.537l-4.117,-2.769l0.003,0.003Zm-185.557,-13.009l-27.351,0l0,27.351l27.351,-0l-0,-27.351Zm35.334,0l-27.35,0l-0,27.351l27.35,-0l0,-27.351Zm35.335,0l-27.351,0l0,27.351l27.351,-0l-0,-27.351Zm35.334,0l-27.35,0l-0,27.351l27.35,-0l0,-27.351Zm-141.338,0l-27.35,0l-0,27.351l27.35,-0l0,-27.351Zm35.335,-34.544l-27.351,-0l0,27.35l27.351,0l-0,-27.35Zm35.334,-0l-27.35,-0l-0,27.35l27.35,0l0,-27.35Zm35.335,-0l-27.351,-0l0,27.35l27.351,0l-0,-27.35Zm-0,-34.548l-27.351,-0l0,27.35l27.351,0l-0,-27.35Z" style="fill:#ccdbf9;fill-rule:nonzero;"/><path id="Kubernetes" d="M379.9,81.79c3.994,-0.202 7.975,0.594 11.577,2.315l124.873,59.626c6.541,3.124 11.302,9.043 12.918,16.064l30.851,134.006c1.616,7.024 -0.084,14.409 -4.615,20.041l-86.389,107.466c-4.531,5.623 -11.409,8.9 -18.667,8.895l-138.589,0.032c-7.26,0.001 -14.138,-3.282 -18.667,-8.911l-86.42,-107.451c-0.483,-0.605 -0.936,-1.234 -1.358,-1.884c-3.507,-5.367 -4.678,-11.921 -3.241,-18.156l30.803,-134.006c1.616,-7.021 6.376,-12.94 12.918,-16.064l124.856,-59.658c2.864,-1.368 5.975,-2.155 9.15,-2.315Zm1.237,45.604c-4.127,0 -7.473,3.718 -7.473,8.303c0,0.071 0.015,0.138 0.016,0.208c-0.006,0.623 -0.036,1.374 -0.016,1.916c0.099,2.645 0.675,4.669 1.022,7.106c0.629,5.216 1.156,9.539 0.831,13.557c-0.317,1.516 -1.433,2.901 -2.428,3.865l-0.175,3.161c-4.485,0.372 -9,1.052 -13.509,2.076c-19.405,4.406 -36.112,14.401 -48.832,27.897c-0.825,-0.563 -2.269,-1.599 -2.698,-1.916c-1.335,0.18 -2.683,0.592 -4.439,-0.431c-3.345,-2.252 -6.391,-5.359 -10.076,-9.102c-1.689,-1.791 -2.912,-3.496 -4.919,-5.222c-0.455,-0.392 -1.151,-0.922 -1.66,-1.325c-1.569,-1.251 -3.419,-1.903 -5.206,-1.965c-2.297,-0.078 -4.509,0.82 -5.956,2.635c-2.573,3.227 -1.749,8.16 1.836,11.018c0.036,0.029 0.075,0.052 0.112,0.08c0.493,0.4 1.096,0.911 1.549,1.246c2.129,1.572 4.074,2.377 6.195,3.625c4.47,2.76 8.175,5.049 11.114,7.808c1.148,1.223 1.349,3.379 1.501,4.311l2.396,2.14c-12.823,19.297 -18.757,43.132 -15.25,67.419l-3.13,0.91c-0.825,1.065 -1.99,2.741 -3.209,3.241c-3.846,1.211 -8.173,1.656 -13.398,2.204c-2.453,0.204 -4.569,0.082 -7.17,0.575c-0.572,0.108 -1.369,0.316 -1.996,0.463c-0.021,0.004 -0.042,0.011 -0.064,0.016c-0.034,0.008 -0.079,0.024 -0.111,0.032c-4.405,1.064 -7.235,5.113 -6.324,9.102c0.911,3.99 5.214,6.416 9.645,5.461c0.032,-0.007 0.079,-0.009 0.112,-0.016c0.05,-0.012 0.094,-0.036 0.144,-0.048c0.617,-0.136 1.391,-0.286 1.932,-0.431c2.556,-0.685 4.408,-1.69 6.706,-2.571c4.945,-1.774 9.041,-3.255 13.031,-3.832c1.666,-0.131 3.422,1.028 4.295,1.517l3.258,-0.559c7.496,23.241 23.206,42.026 43.098,53.813l-1.357,3.257c0.489,1.265 1.029,2.977 0.664,4.226c-1.45,3.761 -3.935,7.732 -6.764,12.158c-1.37,2.045 -2.772,3.632 -4.008,5.972c-0.296,0.56 -0.673,1.42 -0.958,2.012c-1.921,4.11 -0.512,8.843 3.177,10.619c3.713,1.787 8.322,-0.098 10.316,-4.216c0.003,-0.005 0.013,-0.01 0.016,-0.016c0.002,-0.004 -0.002,-0.011 -0,-0.015c0.284,-0.584 0.686,-1.352 0.926,-1.901c1.059,-2.425 1.411,-4.504 2.156,-6.85c1.977,-4.967 3.063,-10.178 5.785,-13.426c0.746,-0.889 1.961,-1.231 3.221,-1.568l1.693,-3.066c17.342,6.656 36.753,8.442 56.144,4.04c4.424,-1.005 8.694,-2.305 12.823,-3.865c0.475,0.844 1.36,2.466 1.597,2.875c1.28,0.416 2.677,0.631 3.816,2.315c2.036,3.479 3.429,7.595 5.126,12.567c0.745,2.346 1.113,4.425 2.172,6.851c0.241,0.552 0.641,1.331 0.926,1.916c1.99,4.131 6.613,6.023 10.331,4.231c3.689,-1.777 5.1,-6.51 3.178,-10.619c-0.286,-0.591 -0.678,-1.452 -0.974,-2.012c-1.236,-2.34 -2.638,-3.911 -4.008,-5.956c-2.83,-4.426 -5.176,-8.103 -6.627,-11.864c-0.607,-1.94 0.102,-3.147 0.575,-4.408c-0.283,-0.324 -0.889,-2.156 -1.246,-3.018c20.673,-12.206 35.922,-31.692 43.083,-54.196c0.967,0.152 2.647,0.449 3.193,0.559c1.124,-0.741 2.158,-1.709 4.184,-1.549c3.99,0.577 8.085,2.059 13.03,3.832c2.299,0.881 4.15,1.903 6.707,2.587c0.54,0.145 1.314,0.28 1.932,0.415c0.05,0.013 0.094,0.037 0.144,0.048c0.033,0.008 0.08,0.009 0.112,0.016c4.431,0.954 8.734,-1.471 9.645,-5.461c0.909,-3.989 -1.919,-8.039 -6.324,-9.102c-0.641,-0.146 -1.549,-0.393 -2.172,-0.511c-2.6,-0.492 -4.717,-0.371 -7.169,-0.575c-5.225,-0.547 -9.553,-0.992 -13.398,-2.203c-1.568,-0.609 -2.683,-2.474 -3.225,-3.242l-3.018,-0.878c1.564,-11.321 1.142,-23.103 -1.565,-34.891c-2.733,-11.898 -7.563,-22.78 -14.005,-32.368c0.775,-0.704 2.237,-1.998 2.651,-2.379c0.121,-1.341 0.017,-2.747 1.405,-4.232c2.939,-2.759 6.645,-5.048 11.114,-7.808c2.122,-1.248 4.083,-2.053 6.212,-3.625c0.481,-0.355 1.139,-0.919 1.645,-1.325c3.585,-2.86 4.41,-7.792 1.836,-11.018c-2.574,-3.227 -7.561,-3.531 -11.146,-0.671c-0.51,0.404 -1.202,0.931 -1.66,1.325c-2.007,1.726 -3.246,3.431 -4.935,5.222c-3.685,3.743 -6.731,6.866 -10.076,9.118c-1.449,0.843 -3.571,0.552 -4.535,0.495l-2.842,2.028c-16.208,-16.996 -38.275,-27.862 -62.037,-29.973c-0.066,-0.996 -0.153,-2.795 -0.176,-3.337c-0.972,-0.931 -2.147,-1.726 -2.443,-3.737c-0.325,-4.018 0.218,-8.341 0.847,-13.557c0.347,-2.437 0.923,-4.461 1.022,-7.106c0.022,-0.601 -0.014,-1.473 -0.016,-2.124c-0.001,-4.585 -3.346,-8.303 -7.474,-8.303Zm65.854,94.197c4.361,7.068 7.663,14.963 9.629,23.521c1.942,8.456 2.429,16.897 1.628,25.055l-37.813,-10.891l-0.031,-0.159c-3.387,-0.926 -5.467,-4.37 -4.679,-7.825c0.323,-1.415 1.074,-2.612 2.092,-3.497l-0.016,-0.08l29.19,-26.124Zm-56.48,-36.232c17.002,2.091 32.726,9.79 44.775,21.589l-31.937,22.643l-0.111,-0.048c-2.835,2.071 -6.829,1.557 -9.038,-1.213c-0.906,-1.135 -1.381,-2.47 -1.438,-3.817l-0.032,-0.016l-2.219,-39.138Zm-15.394,64.496l12.025,-0l7.473,9.341l-2.683,11.657l-10.795,5.19l-10.826,-5.206l-2.683,-11.657l7.489,-9.325Zm5.781,47.953c1.034,-0.038 2.084,0.174 3.082,0.655c1.308,0.629 2.318,1.621 2.954,2.81l0.144,-0l19.018,34.364c-2.468,0.827 -5.006,1.534 -7.601,2.124c-14.545,3.302 -29.044,2.301 -42.172,-2.172l18.97,-34.3l0.032,-0c1.138,-2.128 3.297,-3.398 5.573,-3.481Zm-9.118,-112.449l-2.22,39.202l-0.159,0.08c-0.149,3.507 -3.036,6.307 -6.579,6.307c-1.452,0 -2.792,-0.466 -3.881,-1.261l-0.063,0.032l-32.145,-22.787c9.88,-9.714 22.516,-16.893 37.079,-20.2c2.66,-0.604 5.319,-1.052 7.968,-1.373Zm-56.704,36.216l29.35,26.252l-0.032,0.16c2.649,2.303 3.04,6.299 0.831,9.07c-0.905,1.135 -2.117,1.896 -3.418,2.251l-0.031,0.128l-37.622,10.858c-1.915,-17.509 2.212,-34.529 10.922,-48.719Zm98.589,60.249c0.511,-0.026 1.02,0.02 1.517,0.111l0.064,-0.08l38.915,6.579c-5.696,16.001 -16.594,29.863 -31.155,39.139l-15.106,-36.488l0.048,-0.064c-1.387,-3.224 0.001,-7.005 3.194,-8.543c0.817,-0.393 1.671,-0.611 2.523,-0.654Zm-65.358,0.159c2.969,0.042 5.633,2.103 6.323,5.126c0.323,1.415 0.166,2.817 -0.367,4.056l0.112,0.144l-14.947,36.12c-13.974,-8.967 -25.104,-22.393 -31.058,-38.867l38.579,-6.547l0.064,0.08c0.432,-0.079 0.869,-0.118 1.294,-0.112Z" style="fill:#c1d9f5;"/><g id="Helm"><path d="M52.055,181.488c-0.296,-0.281 -0.619,-0.584 -0.939,-0.891c-6.546,-6.289 -11.612,-13.56 -14.672,-22.155c-0.857,-2.406 -1.503,-4.859 -1.388,-7.45c0.011,-0.246 0.01,-0.493 0.027,-0.738c0.231,-3.344 2.469,-5.034 5.737,-4.242c1.031,0.267 2.029,0.649 2.974,1.139c3.575,1.793 6.489,4.443 9.168,7.35c4.759,5.065 8.576,10.939 11.27,17.345c0.059,0.152 0.127,0.301 0.202,0.446c0.037,0.067 0.116,0.111 0.291,0.27c12.754,-7.652 27.185,-12.08 42.036,-12.899c-0.091,-0.455 -0.146,-0.802 -0.232,-1.142c-1.516,-6.271 -1.981,-12.75 -1.377,-19.174c0.266,-3.849 1.042,-7.647 2.306,-11.292c0.612,-1.92 1.576,-3.71 2.842,-5.277c0.478,-0.56 1.03,-1.053 1.641,-1.464c1.243,-0.879 2.912,-0.891 4.168,-0.029c1.298,0.879 2.343,2.083 3.03,3.492c1.28,2.39 2.2,4.956 2.73,7.615c1.209,5.623 1.58,11.393 1.101,17.124c-0.236,3.498 -0.844,6.961 -1.811,10.33c3.695,0.681 7.373,1.209 10.972,2.064c3.592,0.835 7.133,1.875 10.606,3.115c3.501,1.285 6.926,2.769 10.257,4.446c3.293,1.642 6.427,3.601 9.712,5.467c0.107,-0.224 0.262,-0.492 0.366,-0.779c3.422,-9.465 9.317,-17.844 17.071,-24.262c1.81,-1.554 3.888,-2.764 6.133,-3.571c0.618,-0.216 1.258,-0.363 1.909,-0.439c3.25,-0.372 4.614,1.673 4.854,4.116c0.18,1.8 0.044,3.618 -0.401,5.372c-1.187,4.53 -3.065,8.85 -5.567,12.809c-3.523,5.693 -7.705,10.82 -13.02,14.958c-0.157,0.122 -0.294,0.269 -0.56,0.514c5.198,4.795 9.331,9.014 13.301,14.866c-0.287,0.074 -5.327,0.715 -5.622,0.744c-5.324,0.513 -5.753,0.558 -11.25,0.592c-0.656,-0.016 -1.267,-0.342 -1.646,-0.877c-11.991,-13.101 -28.168,-21.641 -45.75,-24.152c-5.201,-0.756 -10.467,-0.96 -15.71,-0.606c-15.633,0.954 -30.594,6.721 -42.824,16.504c-3.158,2.492 -6.104,5.241 -8.808,8.22c-0.486,0.603 -1.23,0.941 -2.004,0.912c-5.251,-0.037 -10.503,-0.019 -15.754,-0.018l-1.116,-0c0.32,-1.25 3.549,-5.675 7.203,-9.626c2.725,-2.947 5.612,-5.744 8.544,-8.727Z" style="fill:#aec5f5;fill-rule:nonzero;"/><path d="M185.916,299.15c-3.652,5.112 -7.82,9.834 -12.438,14.093c0.368,0.307 0.667,0.556 0.966,0.805c8.015,6.557 14.064,15.203 17.476,24.98c0.908,2.384 1.298,4.935 1.143,7.482c-0.048,0.652 -0.178,1.296 -0.388,1.915c-0.544,1.808 -2.374,2.935 -4.233,2.606c-1.218,-0.158 -2.402,-0.509 -3.509,-1.041c-1.69,-0.834 -3.287,-1.845 -4.764,-3.017c-7.776,-6.389 -13.681,-14.763 -17.088,-24.233c-0.097,-0.267 -0.204,-0.53 -0.375,-0.974c-4.141,2.738 -8.479,5.167 -12.977,7.268c-4.477,2.04 -9.106,3.727 -13.846,5.045c-4.817,1.307 -9.726,2.242 -14.686,2.796c0.087,0.436 0.137,0.783 0.227,1.12c1.573,6.171 2.094,12.564 1.541,18.908c-0.207,3.977 -0.98,7.904 -2.294,11.662c-0.626,1.556 -1.348,3.071 -2.161,4.537c-0.33,0.569 -0.738,1.088 -1.214,1.542c-2.065,2.132 -4.53,2.15 -6.543,-0.039c-0.795,-0.882 -1.476,-1.861 -2.027,-2.914c-1.597,-2.997 -2.418,-6.255 -3.005,-9.578c-0.755,-4.536 -0.991,-9.142 -0.705,-13.731c0.156,-3.361 0.658,-6.696 1.497,-9.954c0.073,-0.277 0.139,-0.555 0.193,-0.836c0.013,-0.071 -0.033,-0.154 -0.089,-0.383c-14.849,-0.839 -29.271,-5.291 -42.01,-12.968c-0.212,0.472 -0.395,0.869 -0.571,1.269c-3.57,8.33 -9.065,15.696 -16.033,21.491c-1.845,1.576 -3.964,2.8 -6.251,3.611c-1.071,0.429 -2.241,0.555 -3.38,0.363c-1.278,-0.229 -2.344,-1.115 -2.803,-2.329c-0.735,-1.777 -0.605,-3.624 -0.356,-5.457c0.41,-2.554 1.162,-5.041 2.235,-7.394c3.182,-7.411 7.866,-14.082 13.756,-19.593c0.238,-0.225 0.482,-0.444 0.716,-0.674c0.074,-0.107 0.138,-0.22 0.19,-0.34c-5.55,-4.812 -10.508,-10.267 -14.771,-16.248c0.511,-0.042 0.852,-0.094 1.194,-0.094c5.455,-0.005 10.911,0.014 16.366,-0.023c0.734,-0.022 1.441,0.288 1.921,0.844c5.931,6.101 12.841,11.167 20.444,14.987c8.043,4.139 16.79,6.739 25.788,7.665c24.448,2.377 45.479,-5.035 63.091,-22.235c0.797,-0.861 1.937,-1.326 3.11,-1.267c5.085,0.063 10.171,0.025 15.258,0.025l1.314,0l0.091,0.308Z" style="fill:#aec5f5;fill-rule:nonzero;"/><path d="M163.194,221.246c1.446,-0 2.839,0.098 4.211,-0.026c1.554,-0.141 2.666,0.415 3.799,1.459c6.544,6.03 13.157,11.986 19.747,17.966c0.331,0.301 0.669,0.594 1.095,0.97c0.396,-0.34 0.768,-0.645 1.123,-0.967c6.793,-6.184 13.58,-12.373 20.363,-18.568c0.569,-0.586 1.366,-0.898 2.181,-0.854c1.67,0.068 3.345,0.02 5.106,0.02l0,54.669c-0.894,0.261 -12.906,0.313 -14.34,0.032l0,-27.686l-0.278,-0.132c-4.676,4.263 -9.351,8.527 -14.132,12.888c-4.787,-4.312 -9.517,-8.573 -14.247,-12.834l-0.272,0.1c-0.012,2.31 -0.004,4.622 -0.005,6.933c-0.002,2.296 -0.002,4.593 -0.001,6.889l0,13.942l-14.23,0c-0.267,-0.919 -0.391,-51.708 -0.12,-54.801Z" style="fill:#aec5f5;fill-rule:nonzero;"/><path d="M31.875,221.308l14.145,0c0.286,0.909 0.342,53.426 0.049,54.751l-14.157,-0c-0.078,-3.478 -0.025,-6.944 -0.035,-10.409c-0.01,-3.436 -0.002,-6.872 -0.002,-10.397l-17.53,-0l-0,20.619c-1.069,0.319 -13.144,0.35 -14.345,0.064l0,-54.622l14.288,0l-0,19.296c1.021,0.294 16.044,0.349 17.574,0.067c0.004,-1.545 0.01,-3.127 0.013,-4.709c0.002,-1.641 0.002,-3.282 0,-4.922l0,-4.8c0,-1.597 0,-3.194 0,-4.938Z" style="fill:#aec5f5;fill-rule:nonzero;"/><path d="M62.975,276.039l0,-54.569c0.839,-0.274 31.932,-0.382 33.964,-0.106l0,11.63c-0.455,0.032 -0.926,0.095 -1.397,0.095c-5.537,0.007 -11.074,0.009 -16.611,0.005l-1.54,-0l-0,9.045l17.301,0l0,12.033l-17.147,-0c-0.287,1.03 -0.365,8.206 -0.132,10.193c0.438,0.029 0.908,0.088 1.377,0.088c5.537,0.007 11.075,0.008 16.612,0.005l1.541,-0l-0,11.581l-33.968,-0Z" style="fill:#aec5f5;fill-rule:nonzero;"/><path d="M113.151,276.06c-0.26,-1.465 -0.208,-53.753 0.05,-54.747l14.093,-0l0,40.347c0.608,0.032 1.085,0.078 1.562,0.078c5.579,0.005 11.157,0.006 16.736,0.003l1.508,0l0,14.319l-33.949,-0Z" style="fill:#aec5f5;fill-rule:nonzero;"/></g></g></svg>